<?xml version="1.0" standalone="no"?>
<!DOCTYPE svg PUBLIC "-//W3C//DTD SVG 20010904//EN"
 "http://www.w3.org/TR/2001/REC-SVG-20010904/DTD/svg10.dtd">
<svg version="1.0" xmlns="http://www.w3.org/2000/svg"
 width="224.000000pt" height="225.000000pt" viewBox="0 0 224.000000 225.000000"
 preserveAspectRatio="xMidYMid meet">

<g transform="translate(0.000000,225.000000) scale(0.100000,-0.100000)"
fill="#000000" stroke="none">
<path d="M0 1125 l0 -1125 1120 0 1120 0 0 1125 0 1125 -1120 0 -1120 0 0
-1125z m1375 936 c542 -148 854 -702 684 -1216 -51 -154 -121 -266 -240 -383
-250 -248 -625 -345 -968 -251 -356 96 -630 380 -707 732 -21 95 -21 289 0
384 82 375 385 667 776 749 101 21 353 12 455 -15z"/>
<path d="M921 2025 c-334 -75 -592 -296 -696 -593 -81 -232 -67 -467 40 -687
226 -464 805 -654 1280 -420 263 130 450 377 500 660 19 108 19 176 1 285 -58
353 -306 629 -662 736 -76 23 -111 27 -244 30 -110 3 -174 -1 -219 -11z m257
-346 c105 -51 136 -198 59 -286 -97 -110 -258 -89 -318 42 -24 51 -24 99 0
150 47 103 157 143 259 94z m-658 -467 c30 -23 40 -95 17 -126 -13 -18 -11
-22 14 -43 53 -45 47 -128 -10 -158 -35 -18 -240 -22 -208 -4 15 9 17 28 17
166 0 132 -3 159 -17 175 -16 18 -13 18 73 13 65 -3 95 -10 114 -23z m329
-120 c66 -173 78 -197 104 -210 18 -9 13 -11 -35 -11 -47 -1 -56 2 -52 14 4 9
-4 42 -16 75 l-22 60 -48 0 -48 0 -25 -62 c-18 -45 -22 -67 -15 -75 8 -10 0
-13 -37 -13 l-48 0 25 20 c18 14 44 68 88 185 35 91 67 162 71 158 4 -4 31
-68 58 -141z m525 139 c70 -9 96 -33 96 -91 0 -29 -7 -45 -30 -67 l-29 -29 62
-65 c34 -36 75 -75 91 -87 36 -27 31 -35 -14 -22 -22 6 -66 41 -122 97 -49 48
-88 91 -88 95 0 5 8 8 18 8 34 0 62 29 62 64 0 43 -17 63 -62 71 l-38 7 0
-157 c0 -139 2 -159 18 -171 15 -12 9 -13 -42 -14 -57 0 -58 1 -43 18 14 16
17 43 17 169 0 145 -1 151 -22 166 -22 16 -22 16 22 16 25 -1 72 -4 104 -8z
m485 -156 c41 -108 69 -167 87 -182 l25 -23 -49 0 c-46 0 -49 1 -49 28 0 15
-10 48 -21 75 -21 47 -22 47 -69 47 l-48 0 -24 -59 c-13 -33 -21 -67 -18 -75
5 -13 -2 -16 -41 -15 -40 0 -44 2 -25 11 23 11 50 65 113 233 44 115 50 129
55 123 2 -2 31 -75 64 -163z m-727 143 c-8 -8 -12 -60 -12 -170 0 -139 2 -158
18 -167 13 -8 3 -10 -42 -11 -57 0 -58 1 -43 18 14 16 17 43 17 170 0 133 -2
152 -17 161 -14 8 -5 10 37 11 42 0 51 -3 42 -12z"/>
<path d="M985 1617 c-67 -67 -54 -195 25 -237 17 -9 18 -7 13 24 -6 39 3 59
57 121 45 52 58 88 40 110 -33 39 -76 -1 -67 -61 7 -42 2 -43 -19 -3 -12 25
-14 37 -5 55 16 35 -4 31 -44 -9z"/>
<path d="M1158 1607 c3 -39 0 -48 -42 -94 -54 -60 -70 -96 -56 -124 12 -21 40
-25 58 -7 7 7 12 30 12 53 1 38 1 39 16 20 10 -14 13 -31 9 -54 -7 -34 -6 -34
17 -19 59 39 87 132 57 191 -13 24 -59 77 -68 77 -4 0 -5 -19 -3 -43z"/>
<path d="M400 1138 l0 -68 34 0 c38 0 63 19 72 56 7 26 -18 73 -39 75 -71 8
-67 11 -67 -63z"/>
<path d="M402 973 l3 -68 47 -3 c56 -4 88 21 88 68 0 46 -31 70 -90 70 l-51 0
3 -67z"/>
<path d="M762 1097 c-16 -46 -16 -47 18 -47 17 0 30 3 30 7 0 14 -24 73 -30
73 -3 0 -11 -15 -18 -33z"/>
<path d="M1766 1100 c-9 -23 -15 -45 -12 -47 2 -2 18 -3 34 -1 l30 3 -17 44
-18 44 -17 -43z"/>
</g>
</svg>
