<svg width="27" height="27" viewBox="0 0 27 27" fill="none" xmlns="http://www.w3.org/2000/svg">
<path d="M12.0679 18.377C13.4541 18.377 14.7324 17.9287 15.7783 17.1816L19.7129 21.1162C19.8955 21.2988 20.1362 21.3901 20.3936 21.3901C20.9331 21.3901 21.3149 20.9751 21.3149 20.4438C21.3149 20.1948 21.2319 19.9541 21.0493 19.7798L17.1396 15.8618C17.9614 14.7827 18.4512 13.4463 18.4512 11.9937C18.4512 8.48242 15.5791 5.61035 12.0679 5.61035C8.56494 5.61035 5.68457 8.47412 5.68457 11.9937C5.68457 15.5049 8.55664 18.377 12.0679 18.377ZM12.0679 16.999C9.32861 16.999 7.0625 14.7329 7.0625 11.9937C7.0625 9.25439 9.32861 6.98828 12.0679 6.98828C14.8071 6.98828 17.0732 9.25439 17.0732 11.9937C17.0732 14.7329 14.8071 16.999 12.0679 16.999Z" fill="white"/>
</svg>
