<svg width="24" height="22" viewBox="0 0 24 22" fill="none" xmlns="http://www.w3.org/2000/svg">
<path d="M18.5874 0.646973H5.41096C4.16334 0.648467 2.96725 1.14474 2.08505 2.02694C1.20285 2.90914 0.706573 4.10524 0.705078 5.35285L0.705078 16.647C0.706573 17.8946 1.20285 19.0907 2.08505 19.9729C2.96725 20.8551 4.16334 21.3514 5.41096 21.3529H18.5874C19.835 21.3514 21.0311 20.8551 21.9133 19.9729C22.7955 19.0907 23.2918 17.8946 23.2933 16.647V5.35285C23.2918 4.10524 22.7955 2.90914 21.9133 2.02694C21.0311 1.14474 19.835 0.648467 18.5874 0.646973ZM5.41096 2.52933H18.5874C19.151 2.53043 19.7013 2.70016 20.1676 3.01667C20.6339 3.33318 20.9948 3.78198 21.2039 4.30533L13.9964 11.5138C13.466 12.0421 12.7478 12.3387 11.9992 12.3387C11.2506 12.3387 10.5324 12.0421 10.002 11.5138L2.79449 4.30533C3.00357 3.78198 3.36448 3.33318 3.83077 3.01667C4.29706 2.70016 4.8474 2.53043 5.41096 2.52933ZM18.5874 19.4705H5.41096C4.66211 19.4705 3.94394 19.173 3.41442 18.6435C2.88491 18.114 2.58743 17.3958 2.58743 16.647V6.76462L8.6712 12.8446C9.55461 13.7258 10.7514 14.2207 11.9992 14.2207C13.247 14.2207 14.4438 13.7258 15.3272 12.8446L21.411 6.76462V16.647C21.411 17.3958 21.1135 18.114 20.584 18.6435C20.0545 19.173 19.3363 19.4705 18.5874 19.4705Z" fill="#4D98FE"/>
</svg>
