<svg width="12" height="15" viewBox="0 0 12 15" fill="none" xmlns="http://www.w3.org/2000/svg">
<path d="M4.15552 6.95211C4.6547 7.3889 5.31903 7.625 6 7.625C6.33846 7.625 6.67483 7.56673 6.99041 7.45235C7.306 7.33797 7.59669 7.16893 7.84448 6.95211C8.09239 6.73519 8.29317 6.47402 8.43166 6.18147C8.57029 5.88863 8.64286 5.57189 8.64286 5.25C8.64286 4.59693 8.3458 3.98654 7.84448 3.54789C7.3453 3.1111 6.68097 2.875 6 2.875C5.31903 2.875 4.6547 3.1111 4.15552 3.54789C3.6542 3.98654 3.35714 4.59693 3.35714 5.25C3.35714 5.90307 3.6542 6.51346 4.15552 6.95211ZM6 14.2912C5.84864 14.1359 5.65419 13.9329 5.42909 13.6903C4.87362 13.0914 4.13416 12.2536 3.39596 11.2962C2.65649 10.3372 1.92609 9.2683 1.38256 8.2067C0.834879 7.13702 0.5 6.11885 0.5 5.25C0.5 4.01341 1.06085 2.81152 2.08661 1.91398C3.11451 1.01457 4.52135 0.5 6 0.5C7.47865 0.5 8.88549 1.01457 9.91339 1.91398C10.9392 2.81152 11.5 4.01341 11.5 5.25C11.5 6.11885 11.1651 7.13702 10.6174 8.2067C10.0739 9.2683 9.34351 10.3372 8.60404 11.2962C7.86584 12.2536 7.12638 13.0914 6.57091 13.6903C6.34581 13.9329 6.15135 14.1359 6 14.2912Z" fill="#FF0505" stroke="#FF0000"/>
</svg>
