<svg width="29" height="29" viewBox="0 0 32 32" fill="none" xmlns="http://www.w3.org/2000/svg">
<path d="M15.9992 6.72569C19.0147 6.72569 19.3724 6.7369 20.563 6.79108C21.794 6.84713 23.0618 7.12551 23.9587 8.01576C24.8641 8.91441 25.1361 10.1606 25.1926 11.3862C25.2472 12.5679 25.2585 12.9229 25.2585 15.9159C25.2585 18.9089 25.2472 19.2639 25.1926 20.4456C25.1371 21.6609 24.85 22.9314 23.9587 23.816C23.0533 24.7147 21.7987 24.9846 20.563 25.0407C19.3724 25.0949 19.0147 25.1061 15.9992 25.1061C12.9837 25.1061 12.626 25.0949 11.4354 25.0407C10.2204 24.9856 8.92343 24.6941 8.03967 23.816C7.13896 22.922 6.86225 21.6637 6.80578 20.4456C6.7512 19.2639 6.7399 18.9089 6.7399 15.9159C6.7399 12.9229 6.7512 12.5679 6.80578 11.3862C6.86131 10.1755 7.1512 8.8976 8.03967 8.01576C8.9432 7.11897 10.2034 6.84713 11.4354 6.79108C12.626 6.7369 12.9837 6.72569 15.9992 6.72569ZM15.9992 4.70605C12.9319 4.70605 12.547 4.71913 11.3423 4.77331C9.59637 4.85272 7.86273 5.33474 6.60061 6.58744C5.33378 7.84481 4.85284 9.56178 4.77284 11.2937C4.71825 12.4894 4.70508 12.8715 4.70508 15.9159C4.70508 18.9603 4.71825 19.3424 4.77284 20.5381C4.85284 22.2691 5.34037 23.9944 6.60061 25.2443C7.86649 26.5008 9.5992 26.9791 11.3423 27.0585C12.547 27.1126 12.9319 27.1257 15.9992 27.1257C19.0665 27.1257 19.4514 27.1126 20.6561 27.0585C22.4011 26.9791 24.1366 26.4961 25.3978 25.2443C26.6655 23.986 27.1455 22.27 27.2255 20.5381C27.2801 19.3424 27.2933 18.9603 27.2933 15.9159C27.2933 12.8715 27.2801 12.4894 27.2255 11.2937C27.1455 9.56085 26.659 7.8392 25.3978 6.58744C24.1338 5.33287 22.3964 4.85178 20.6561 4.77331C19.4514 4.71913 19.0665 4.70605 15.9992 4.70605Z" fill="#4D98FE"/>
<path d="M15.9987 10.1597C12.7959 10.1597 10.1992 12.737 10.1992 15.9159C10.1992 19.0948 12.7959 21.6722 15.9987 21.6722C19.2016 21.6722 21.7983 19.0948 21.7983 15.9159C21.7983 12.737 19.2016 10.1597 15.9987 10.1597ZM15.9987 19.6525C13.9197 19.6525 12.234 17.9795 12.234 15.9159C12.234 13.8524 13.9197 12.1793 15.9987 12.1793C18.0778 12.1793 19.7635 13.8524 19.7635 15.9159C19.7635 17.9795 18.0778 19.6525 15.9987 19.6525Z" fill="#4D98FE"/>
<path d="M22.0272 11.2768C22.7757 11.2768 23.3825 10.6745 23.3825 9.93161C23.3825 9.18868 22.7757 8.58643 22.0272 8.58643C21.2787 8.58643 20.6719 9.18868 20.6719 9.93161C20.6719 10.6745 21.2787 11.2768 22.0272 11.2768Z" fill="#4D98FE"/>
</svg>
