<svg width="24" height="24" viewBox="0 0 24 24" fill="none" xmlns="http://www.w3.org/2000/svg">
<path fill-rule="evenodd" clip-rule="evenodd" d="M19.9674 3.98888C17.8535 1.87311 15.0431 0.706996 12.0492 0.706055C5.87984 0.706055 0.85866 5.72629 0.855836 11.8985C0.854895 13.8712 1.37066 15.7969 2.35042 17.4948L0.761719 23.2943L6.6949 21.7376C8.32972 22.6298 10.1707 23.0995 12.0436 23.1004H12.0483C18.2168 23.1004 23.2389 18.0792 23.2417 11.907C23.2436 8.91688 22.0803 6.1037 19.9674 3.98888ZM12.0492 21.2096H12.0455C10.3758 21.2096 8.73913 20.7606 7.31042 19.9126L6.97066 19.7112L3.44972 20.6345L4.38995 17.2011L4.16878 16.8491C3.23701 15.3677 2.74572 13.6557 2.74666 11.8985C2.74854 6.76911 6.92266 2.59594 12.054 2.59594C14.5387 2.59594 16.8747 3.56535 18.6309 5.32347C20.3871 7.08252 21.3537 9.41947 21.3528 11.9051C21.35 17.0364 17.1768 21.2096 12.0492 21.2096ZM17.1523 14.2421C16.8728 14.1018 15.4977 13.4251 15.2408 13.3319C14.9848 13.2388 14.7984 13.1917 14.6111 13.4712C14.4238 13.7508 13.8892 14.3813 13.7255 14.5686C13.5627 14.755 13.3989 14.7785 13.1194 14.6383C12.8398 14.4981 11.9382 14.2035 10.87 13.2501C10.0389 12.5084 9.47701 11.5926 9.31419 11.3122C9.15137 11.0317 9.29725 10.8811 9.43654 10.7418C9.56266 10.6166 9.71607 10.4152 9.85631 10.2515C9.99748 10.0896 10.0436 9.97288 10.1377 9.78558C10.2309 9.59923 10.1848 9.43547 10.1142 9.29523C10.0436 9.15594 9.48454 7.779 9.25207 7.219C9.02525 6.67311 8.79466 6.74747 8.62243 6.739C8.4596 6.73052 8.27325 6.72958 8.08595 6.72958C7.8996 6.72958 7.59654 6.79923 7.34054 7.0797C7.08454 7.36017 6.36172 8.03688 6.36172 9.41288C6.36172 10.7898 7.36407 12.1197 7.50337 12.3061C7.64266 12.4924 9.47513 15.3178 12.2808 16.5291C12.9481 16.8171 13.4695 16.9893 13.8751 17.1183C14.5452 17.331 15.1551 17.3009 15.637 17.2293C16.1744 17.1493 17.2916 16.5526 17.525 15.8995C17.7584 15.2463 17.7584 14.6853 17.6878 14.5696C17.6182 14.4519 17.4318 14.3823 17.1523 14.2421Z" fill="#4D98FE"/>
</svg>
